<svg width="308" height="340" viewBox="0 0 308 340" fill="none" xmlns="http://www.w3.org/2000/svg">
<path fill-rule="evenodd" clip-rule="evenodd" d="M94.0285 0C116.516 0 135.549 14.4386 141.952 34.3441C149.792 31.4579 157.772 31.0208 165.923 34.4853C172.281 14.5068 191.353 0 213.893 0C241.633 0 264.12 21.971 264.12 49.0741C264.12 76.1771 241.633 98.1481 213.893 98.1481C186.153 98.1481 163.666 76.1771 163.666 49.0741C163.666 46.9366 163.806 44.8314 164.078 42.766C157.596 40.5982 148.96 40.7417 143.883 43.0866C144.128 45.0492 144.256 47.047 144.256 49.0741C144.256 76.1771 121.768 98.1481 94.0285 98.1481C66.2884 98.1481 43.8013 76.1771 43.8013 49.0741C43.8013 21.971 66.2884 0 94.0285 0ZM213.893 8.86557C236.622 8.86557 255.046 26.8672 255.046 49.0741C255.046 71.2809 236.622 89.2825 213.893 89.2825C191.164 89.2825 172.74 71.2809 172.74 49.0741C172.74 26.8672 191.164 8.86557 213.893 8.86557ZM94.0285 8.86557C116.757 8.86557 135.182 26.8672 135.182 49.0741C135.182 71.2809 116.757 89.2825 94.0285 89.2825C71.2997 89.2825 52.8752 71.2809 52.8752 49.0741C52.8752 26.8672 71.2997 8.86557 94.0285 8.86557Z" fill="url(#paint0_linear_16_135)"/>
<path fill-rule="evenodd" clip-rule="evenodd" d="M94.0285 0C116.516 0 135.549 14.4386 141.952 34.3441C149.792 31.4579 157.772 31.0208 165.923 34.4853C172.281 14.5068 191.353 0 213.893 0C241.633 0 264.12 21.971 264.12 49.0741C264.12 76.1771 241.633 98.1481 213.893 98.1481C186.153 98.1481 163.666 76.1771 163.666 49.0741C163.666 46.9366 163.806 44.8314 164.078 42.766C157.596 40.5982 148.96 40.7417 143.883 43.0866C144.128 45.0492 144.256 47.047 144.256 49.0741C144.256 76.1771 121.768 98.1481 94.0285 98.1481C66.2884 98.1481 43.8013 76.1771 43.8013 49.0741C43.8013 21.971 66.2884 0 94.0285 0ZM213.893 8.86557C236.622 8.86557 255.046 26.8672 255.046 49.0741C255.046 71.2809 236.622 89.2825 213.893 89.2825C191.164 89.2825 172.74 71.2809 172.74 49.0741C172.74 26.8672 191.164 8.86557 213.893 8.86557ZM94.0285 8.86557C116.757 8.86557 135.182 26.8672 135.182 49.0741C135.182 71.2809 116.757 89.2825 94.0285 89.2825C71.2997 89.2825 52.8752 71.2809 52.8752 49.0741C52.8752 26.8672 71.2997 8.86557 94.0285 8.86557Z" fill="url(#paint1_linear_16_135)"/>
<path fill-rule="evenodd" clip-rule="evenodd" d="M154.054 131.341C133.212 165.188 64.5152 164.073 54.6738 114.657C89.1732 164.897 123.373 73.9488 153.68 114.657C186.607 73.3459 216.503 166.021 253.248 114.657C248.158 158.434 179.361 169.021 154.054 131.341Z" fill="url(#paint2_linear_16_135)"/>
<path fill-rule="evenodd" clip-rule="evenodd" d="M154.054 131.341C133.212 165.188 64.5152 164.073 54.6738 114.657C89.1732 164.897 123.373 73.9488 153.68 114.657C186.607 73.3459 216.503 166.021 253.248 114.657C248.158 158.434 179.361 169.021 154.054 131.341Z" fill="url(#paint3_linear_16_135)"/>
<path d="M106.07 187.904C103.443 186.249 101.556 184.655 101.701 182.273C101.858 179.024 104.964 176.451 109.896 176.451C115.182 176.451 118.706 179.216 118.717 183.413H119.311L120.134 174.524H116.203C113.347 174.171 109.698 173.899 107.686 173.899C99.7933 173.899 95.0498 178.227 94.5178 184.493C94.0591 188.913 96.1964 192.595 100.502 195.36L111.408 202.363C114.765 204.522 116.412 206.156 116.402 208.618C116.412 212.402 113.201 215.328 107.759 215.419C100.252 215.54 95.4668 210.334 95.9675 204.018H95.4148C93.7778 206.661 92.9021 211.766 93.9338 214.299C96.2172 216.569 101.472 217.972 107.081 217.972C117.09 217.972 123.231 213.32 123.606 205.44C123.877 200.91 121.708 197.741 117.997 195.401L106.07 187.904ZM164.027 204.774H163.402C161.462 210.778 157.407 214.541 151.162 214.541H142.946V197.499H151.318C154.352 197.59 156.552 199.759 156.541 202.685V203.21L157.156 203.221V189.226L156.541 189.236V189.76C156.552 192.707 154.31 194.896 151.245 194.946H142.946V177.329H153.476C157.23 177.481 159.596 179.862 159.585 183.504V184.221L160.211 184.231V173.647C159.054 174.121 155.446 174.726 152.746 174.746H128.767L128.777 175.352H129.569C131.686 175.352 133.427 176.946 133.563 178.964V212.715C133.521 214.824 131.749 216.519 129.559 216.519H128.767L128.756 217.124H161.149L164.027 204.774ZM201.925 174.746V175.352H202.947C204.729 175.352 206.179 176.573 206.251 178.268V202.151C206.231 210.273 201.466 215.328 193.824 215.328C186.348 215.328 181.688 209.981 181.688 201.364V178.258C181.761 176.563 183.211 175.352 184.983 175.352H186.005V174.746H167.978V175.352H169C170.804 175.352 172.274 176.613 172.305 178.348V201.888C172.305 211.766 179.301 217.972 192.698 217.972C203.948 217.972 210.693 211.736 210.693 201.787V178.207C210.808 176.542 212.236 175.352 213.998 175.352H215.02V174.746H201.925Z" fill="url(#paint4_linear_16_135)"/>
<path d="M0.029322 234.003L0.0444448 234.868H1.17598C4.1237 234.868 6.86339 237.03 6.86339 239.811V288.241C6.80428 291.238 4.25798 293.659 1.14571 293.659H0.014661L0 294.523H32.4132C53.5111 294.523 66.6586 282.953 66.6586 264.292C66.6586 245.603 53.5111 234.003 32.4132 234.003H0.029322ZM20.2785 237.663H31.3266C44.0863 237.663 52.0964 247.865 52.0964 264.292C52.0964 280.676 44.1308 290.849 31.3266 290.849H20.2639L20.2785 237.663ZM99.2954 293.659H98.1786C95.0521 293.659 92.5058 291.238 92.4467 288.226V240.242C92.5356 237.26 95.0668 234.853 98.1786 234.853H99.2954L99.3101 233.989H72.1824L72.1971 234.853H73.3286C76.4404 234.853 78.9716 237.26 79.0463 240.257V288.226C78.9867 291.238 76.4551 293.659 73.3286 293.659H72.1971L72.1824 294.523H99.3101L99.2954 293.659ZM157.036 276.886H156.142C153.373 285.46 147.582 290.834 138.663 290.834H126.93V266.497H138.886C143.219 266.627 146.36 269.724 146.345 273.903V274.652L147.224 274.667V254.681L146.345 254.695V255.445C146.36 259.652 143.159 262.779 138.782 262.851H126.93V237.692H141.968C147.328 237.908 150.708 241.309 150.693 246.511V247.534L151.587 247.548V232.433C149.934 233.11 144.782 233.975 140.926 234.003H106.681L106.695 234.868H107.827C110.85 234.868 113.336 237.145 113.53 240.027V288.226C113.47 291.238 110.939 293.659 107.812 293.659H106.681L106.666 294.523H152.927L157.036 276.886ZM231.78 266.396V265.532H206.676V266.396H208.09C210.979 266.382 212.706 267.808 212.691 270.33V283.543C210.577 289.019 204.13 292.088 197.549 292.103C184.387 292.074 177.151 281.382 177.151 264.681C177.151 247.116 184.983 236.438 199.589 236.438C209.133 236.438 217.605 240.574 220.969 252.318H221.714L221.535 237.476C216.28 234.897 206.721 232.793 196.894 232.793C175.826 232.793 162.589 244.882 162.589 264.162C162.589 283.63 176.094 295.734 196.373 295.734C210.681 295.734 221.774 289.855 225.972 284.595V270.316C225.913 267.808 227.536 266.396 230.424 266.396H231.78ZM272.769 232.793C251.314 232.793 237.63 244.839 237.63 264.263C237.63 283.688 251.314 295.734 272.769 295.734C294.225 295.734 307.922 283.688 307.922 264.263C307.922 244.839 294.225 232.793 272.769 232.793ZM272.769 292.103C260.173 292.103 252.281 281.439 252.281 264.263C252.281 247.087 260.173 236.424 272.769 236.424C285.365 236.424 293.257 247.087 293.257 264.263C293.257 281.439 285.365 292.103 272.769 292.103Z" fill="url(#paint5_linear_16_135)"/>
<path d="M52.9334 327.408C51.8822 326.779 51.0363 326.259 51.1157 325.251C51.1862 324.017 52.3867 323.14 54.1855 323.14C56.414 323.14 57.6708 324.216 57.6708 325.862H57.9091L58.3016 322.303H56.7781C55.6149 322.163 54.0734 322.059 53.1343 322.059C50.2798 322.059 48.3174 323.578 48.0791 326.165C47.8687 328.023 48.7657 329.506 50.5597 330.605L54.5496 333.046C55.9842 333.928 56.6433 334.552 56.6433 335.488C56.6433 336.818 55.587 337.935 53.4005 337.953C50.4055 337.962 48.6073 335.909 48.7657 333.454H48.5463C47.8734 334.48 47.4852 336.551 47.9202 337.586C48.7236 338.427 50.6717 339.033 53.0875 339.033C56.9838 339.033 59.5022 337.184 59.6752 334.118C59.801 332.183 58.7971 330.894 57.3668 330.044L52.9334 327.408ZM77.7323 338.68V338.409H77.4008C76.5081 338.409 75.7936 337.79 75.7652 336.976V324.094C75.7979 323.284 76.5128 322.674 77.3956 322.674H77.7233V322.403H69.7714V322.674H70.1076C70.981 322.674 71.7144 323.294 71.7238 324.112V336.967C71.7144 337.785 70.981 338.409 70.1076 338.409H69.7757V338.68H77.7323ZM100.195 322.403V322.674H100.672C101.517 322.674 102.19 323.271 102.199 324.062V332.979L89.3511 322.036L89.0802 322.032C89.0802 322.032 89.3889 323.262 89.3889 325.102V337.021C89.379 337.812 88.6881 338.409 87.8427 338.409H87.3845V338.68H95.2286V338.409H94.7618C93.9159 338.409 93.2383 337.812 93.2152 337.021V328.055L106.096 339.033H106.348C106.348 339.033 106.045 337.767 106.045 335.877V324.022C106.087 323.253 106.755 322.674 107.586 322.674H108.063V322.403H100.195ZM134.067 331.88C133.375 336.298 131.581 337.962 127.583 337.953C123.901 337.867 121.742 334.982 121.742 330.478C121.742 326.056 123.789 323.122 127.868 323.122C130.642 323.122 132.726 324.265 133.675 327.598H133.89V323.289C132.418 322.597 130.143 322.055 127.578 322.055C121.252 322.055 117.472 325.215 117.472 330.532C117.472 335.909 121.341 339.006 127.578 339.033C131.227 339.033 133.521 337.69 134.614 335.972L134.287 331.88H134.067ZM159.002 333.693H158.731C157.997 336.094 156.371 337.568 154.002 337.591H150.63V331.157H153.853C155.147 331.193 155.955 332.097 155.955 333.3V333.49H156.245V327.747H155.955V327.924C155.955 329.14 155.134 330.044 153.816 330.067H150.63V323.493H154.666C156.287 323.515 157.212 324.496 157.212 326.06V326.309H157.507V321.982C157.063 322.154 155.647 322.394 154.591 322.398H144.729V322.669H145.065C145.896 322.669 146.569 323.275 146.583 324.089V336.989C146.565 337.794 145.892 338.405 145.065 338.405H144.729V338.676H157.848H157.913L159.002 333.693ZM177.62 325.468C177.591 322.299 179.003 320.589 181.455 320.454C183.782 320.336 185.221 321.923 185.221 324.496C185.221 328.869 179.647 334.344 175.947 338.409V338.68H189.323L191.005 332.545H190.725C189.739 334.416 188.768 335.176 187.099 335.176H181.329C184.104 333.046 189.707 329.271 189.707 324.799C189.707 321.363 186.642 319.31 182.427 319.31C180.072 319.31 177.423 320.047 176.003 321.295L177.339 325.468H177.62ZM209.389 319.31C204.465 319.31 201.522 323.176 201.522 329.185C201.522 335.194 204.465 339.06 209.389 339.06C214.309 339.06 217.257 335.194 217.257 329.185C217.257 323.176 214.309 319.31 209.389 319.31ZM209.389 320.454C211.684 320.454 212.912 323.434 212.912 329.185C212.912 334.936 211.684 337.916 209.389 337.916C207.096 337.916 205.867 334.936 205.867 329.185C205.867 323.434 207.096 320.454 209.389 320.454ZM228.04 338.68L228.044 338.409H228.629C229.474 338.409 230.175 337.754 230.175 336.939V322.977C230.175 321.77 229.559 321.318 228.544 321.318H227.829V321.046C229.339 320.919 232.436 320.499 234.076 319.31H234.356V336.958C234.356 337.763 235.062 338.409 235.903 338.409H236.487L236.492 338.68H228.04ZM247.027 319.74H260.436L257.077 327.661C256.091 329.972 253.984 336.035 253.264 338.68H249.597C251.096 335.959 254.143 330.107 255.325 327.449L257.18 323.158H248.62C247.499 323.158 246.929 323.709 246.518 324.785H246.237L247.027 319.74Z" fill="url(#paint6_linear_16_135)"/>
<defs>
<linearGradient id="paint0_linear_16_135" x1="51.3317" y1="96.4463" x2="95.6735" y2="-47.0057" gradientUnits="userSpaceOnUse">
<stop stop-color="#59431F"/>
<stop offset="0.25" stop-color="#8E6B2C"/>
<stop offset="0.6" stop-color="#C9A24A"/>
<stop offset="1" stop-color="#EAD38F"/>
</linearGradient>
<linearGradient id="paint1_linear_16_135" x1="51.3317" y1="96.4463" x2="95.6735" y2="-47.0057" gradientUnits="userSpaceOnUse">
<stop stop-color="#59431F"/>
<stop offset="0.25" stop-color="#8E6B2C"/>
<stop offset="0.6" stop-color="#C9A24A"/>
<stop offset="1" stop-color="#EAD38F"/>
</linearGradient>
<linearGradient id="paint2_linear_16_135" x1="61.461" y1="153.699" x2="75.4962" y2="74.7397" gradientUnits="userSpaceOnUse">
<stop stop-color="#59431F"/>
<stop offset="0.25" stop-color="#8E6B2C"/>
<stop offset="0.6" stop-color="#C9A24A"/>
<stop offset="1" stop-color="#EAD38F"/>
</linearGradient>
<linearGradient id="paint3_linear_16_135" x1="61.461" y1="153.699" x2="75.4962" y2="74.7397" gradientUnits="userSpaceOnUse">
<stop stop-color="#59431F"/>
<stop offset="0.25" stop-color="#8E6B2C"/>
<stop offset="0.6" stop-color="#C9A24A"/>
<stop offset="1" stop-color="#EAD38F"/>
</linearGradient>
<linearGradient id="paint4_linear_16_135" x1="97.6431" y1="217.204" x2="114.524" y2="150.5" gradientUnits="userSpaceOnUse">
<stop stop-color="#59431F"/>
<stop offset="0.25" stop-color="#8E6B2C"/>
<stop offset="0.6" stop-color="#C9A24A"/>
<stop offset="1" stop-color="#EAD38F"/>
</linearGradient>
<linearGradient id="paint5_linear_16_135" x1="10.5246" y1="294.636" x2="24.6947" y2="195.297" gradientUnits="userSpaceOnUse">
<stop stop-color="#59431F"/>
<stop offset="0.25" stop-color="#8E6B2C"/>
<stop offset="0.6" stop-color="#C9A24A"/>
<stop offset="1" stop-color="#EAD38F"/>
</linearGradient>
<linearGradient id="paint6_linear_16_135" x1="55.0063" y1="338.718" x2="57.0354" y2="307.224" gradientUnits="userSpaceOnUse">
<stop stop-color="#59431F"/>
<stop offset="0.25" stop-color="#8E6B2C"/>
<stop offset="0.6" stop-color="#C9A24A"/>
<stop offset="1" stop-color="#EAD38F"/>
</linearGradient>
</defs>
</svg>
