<svg width="141" height="42" viewBox="0 0 141 42" fill="none" xmlns="http://www.w3.org/2000/svg">
<path d="M72.7531 9.29866C71.9693 8.805 71.4064 8.32942 71.4498 7.61902C71.4965 6.64977 72.4233 5.88215 73.8945 5.88215C75.4714 5.88215 76.5226 6.707 76.5259 7.9591H76.703L76.9488 5.30724H75.7761C74.924 5.20184 73.8354 5.1206 73.2352 5.1206C70.8806 5.1206 69.4655 6.41198 69.3068 8.28124C69.17 9.59961 69.8076 10.6983 71.0921 11.5231L74.3455 13.6121C75.3469 14.2562 75.8385 14.7438 75.8352 15.4782C75.8385 16.6071 74.8805 17.48 73.2569 17.5071C71.0176 17.5432 69.5899 15.99 69.7393 14.1057H69.5744C69.0861 14.8943 68.8248 16.4174 69.1326 17.173C69.8138 17.8502 71.3814 18.2687 73.0547 18.2687C76.0405 18.2687 77.8726 16.881 77.9846 14.5302C78.0653 13.1786 77.4184 12.2334 76.3112 11.5351L72.7531 9.29866ZM90.0429 14.3314H89.8563C89.2777 16.1225 88.068 17.2452 86.2048 17.2452H83.7541V12.1612H86.2515C87.1566 12.1883 87.8129 12.8354 87.8097 13.7083V13.8649L87.9932 13.868V9.693L87.8097 9.69597V9.85252C87.8129 10.7315 87.144 11.3847 86.2298 11.3996H83.7541V6.1441H86.8953C88.0151 6.18917 88.7211 6.89957 88.7178 7.98623V8.2L88.9046 8.20296V5.04544C88.5593 5.18687 87.4831 5.36743 86.6777 5.37351H79.5241L79.5271 5.55408H79.7635C80.3948 5.55408 80.9144 6.02965 80.9547 6.63169V16.7004C80.9422 17.3295 80.4136 17.8352 79.7604 17.8352H79.5241L79.5209 18.0158H89.1844L90.0429 14.3314ZM101.349 5.37351V5.55408H101.653C102.185 5.55408 102.618 5.91832 102.639 6.42399V13.5488C102.633 15.9719 101.212 17.48 98.932 17.48C96.7018 17.48 95.3115 15.8847 95.3115 13.3141V6.42102C95.3334 5.91535 95.7657 5.55408 96.2944 5.55408H96.5993V5.37351H91.2216V5.55408H91.5265C92.0646 5.55408 92.503 5.93033 92.5123 6.44801V13.4705C92.5123 16.4174 94.5995 18.2687 98.5961 18.2687C101.952 18.2687 103.964 16.4083 103.964 13.4404V6.40592C103.999 5.90928 104.425 5.55408 104.95 5.55408H105.255V5.37351H101.349Z" fill="url(#paint0_linear_18_254)"/>
<path d="M69.0069 21.5204L69.0104 21.7226H69.275C69.9642 21.7226 70.6048 22.228 70.6048 22.8783V34.2026C70.591 34.9033 69.9956 35.4695 69.2679 35.4695H69.0034L69 35.6716H76.579C81.5123 35.6716 84.5865 32.966 84.5865 28.6027C84.5865 24.2327 81.5123 21.5204 76.579 21.5204H69.0069ZM73.7416 22.3762H76.325C79.3085 22.3762 81.1815 24.7617 81.1815 28.6027C81.1815 32.4337 79.3189 34.8124 76.325 34.8124H73.7382L73.7416 22.3762ZM92.2178 35.4695H91.9567C91.2256 35.4695 90.6302 34.9033 90.6164 34.1991V22.9793C90.6372 22.2818 91.229 21.7191 91.9567 21.7191H92.2178L92.2212 21.517H85.8781L85.8815 21.7191H86.1461C86.8737 21.7191 87.4656 22.2818 87.483 22.9827V34.1991C87.4691 34.9033 86.8771 35.4695 86.1461 35.4695H85.8815L85.8781 35.6716H92.2212L92.2178 35.4695ZM105.719 31.5475H105.51C104.863 33.5523 103.508 34.809 101.423 34.809H98.6795V29.1182H101.475C102.488 29.1486 103.223 29.8729 103.219 30.85V31.0252L103.425 31.0287V26.3554L103.219 26.3587V26.5339C103.223 27.5178 102.474 28.2489 101.451 28.2658H98.6795V22.3829H102.196C103.449 22.4334 104.239 23.2287 104.236 24.445V24.6842L104.445 24.6876V21.1531C104.058 21.3115 102.854 21.5137 101.952 21.5204H93.9447L93.9481 21.7226H94.2128C94.9195 21.7226 95.5009 22.2549 95.5461 22.9288V34.1991C95.5323 34.9033 94.9403 35.4695 94.2093 35.4695H93.9447L93.9413 35.6716H104.758L105.719 31.5475ZM123.196 29.0946V28.8925H117.326V29.0946H117.657C118.332 29.0913 118.736 29.4249 118.733 30.0145V33.1041C118.238 34.3845 116.731 35.1021 115.192 35.1056C112.114 35.0988 110.422 32.5988 110.422 28.6938C110.422 24.5865 112.254 22.0898 115.669 22.0898C117.901 22.0898 119.881 23.0568 120.668 25.8028H120.842L120.801 22.3324C119.572 21.7293 117.337 21.2374 115.039 21.2374C110.113 21.2374 107.018 24.0642 107.018 28.5724C107.018 33.1244 110.175 35.9546 114.917 35.9546C118.263 35.9546 120.856 34.5799 121.838 33.35V30.0111C121.824 29.4249 122.204 29.0946 122.879 29.0946H123.196ZM132.78 21.2374C127.764 21.2374 124.564 24.0542 124.564 28.596C124.564 33.1379 127.764 35.9546 132.78 35.9546C137.797 35.9546 141 33.1379 141 28.596C141 24.0542 137.797 21.2374 132.78 21.2374ZM132.78 35.1056C129.835 35.1056 127.99 32.6122 127.99 28.596C127.99 24.5798 129.835 22.0865 132.78 22.0865C135.726 22.0865 137.571 24.5798 137.571 28.596C137.571 32.6122 135.726 35.1056 132.78 35.1056Z" fill="url(#paint1_linear_18_254)"/>
<path fill-rule="evenodd" clip-rule="evenodd" d="M13.4505 0C19.4724 0 24.5695 3.86656 26.2841 9.19713C28.3837 8.42422 30.5205 8.30716 32.7034 9.23493C34.406 3.88483 39.5134 0 45.5495 0C52.9781 0 59 5.88368 59 13.1417C59 20.3997 52.9781 26.2834 45.5495 26.2834C38.1209 26.2834 32.099 20.3997 32.099 13.1417C32.099 12.5693 32.1366 12.0055 32.2093 11.4524C30.4734 10.8719 28.1608 10.9104 26.8012 11.5383C26.8668 12.0639 26.901 12.5989 26.901 13.1417C26.901 20.3997 20.8791 26.2834 13.4505 26.2834C6.02191 26.2834 0 20.3997 0 13.1417C0 5.88368 6.02191 0 13.4505 0ZM45.5495 2.37414C51.6361 2.37414 56.5701 7.19486 56.5701 13.1417C56.5701 19.0885 51.6361 23.9093 45.5495 23.9093C39.4629 23.9093 34.5289 19.0885 34.5289 13.1417C34.5289 7.19486 39.4629 2.37414 45.5495 2.37414ZM13.4505 2.37414C19.5371 2.37414 24.4711 7.19486 24.4711 13.1417C24.4711 19.0885 19.5371 23.9093 13.4505 23.9093C7.36389 23.9093 2.42994 19.0885 2.42994 13.1417C2.42994 7.19486 7.36389 2.37414 13.4505 2.37414Z" fill="url(#paint2_linear_18_254)"/>
<path fill-rule="evenodd" clip-rule="evenodd" d="M13.4505 0C19.4724 0 24.5695 3.86656 26.2841 9.19713C28.3837 8.42422 30.5205 8.30716 32.7034 9.23493C34.406 3.88483 39.5134 0 45.5495 0C52.9781 0 59 5.88368 59 13.1417C59 20.3997 52.9781 26.2834 45.5495 26.2834C38.1209 26.2834 32.099 20.3997 32.099 13.1417C32.099 12.5693 32.1366 12.0055 32.2093 11.4524C30.4734 10.8719 28.1608 10.9104 26.8012 11.5383C26.8668 12.0639 26.901 12.5989 26.901 13.1417C26.901 20.3997 20.8791 26.2834 13.4505 26.2834C6.02191 26.2834 0 20.3997 0 13.1417C0 5.88368 6.02191 0 13.4505 0ZM45.5495 2.37414C51.6361 2.37414 56.5701 7.19486 56.5701 13.1417C56.5701 19.0885 51.6361 23.9093 45.5495 23.9093C39.4629 23.9093 34.5289 19.0885 34.5289 13.1417C34.5289 7.19486 39.4629 2.37414 45.5495 2.37414ZM13.4505 2.37414C19.5371 2.37414 24.4711 7.19486 24.4711 13.1417C24.4711 19.0885 19.5371 23.9093 13.4505 23.9093C7.36389 23.9093 2.42994 19.0885 2.42994 13.1417C2.42994 7.19486 7.36389 2.37414 13.4505 2.37414Z" fill="url(#paint3_linear_18_254)"/>
<path fill-rule="evenodd" clip-rule="evenodd" d="M29.5251 35.1723C23.9437 44.2362 5.54707 43.9377 2.91162 30.7044C12.1503 44.1582 21.3087 19.803 29.4248 30.7044C38.2424 19.6416 46.2483 44.4593 56.0884 30.7044C54.7254 42.4275 36.302 45.2627 29.5251 35.1723Z" fill="url(#paint4_linear_18_254)"/>
<path fill-rule="evenodd" clip-rule="evenodd" d="M29.5251 35.1723C23.9437 44.2362 5.54707 43.9377 2.91162 30.7044C12.1503 44.1582 21.3087 19.803 29.4248 30.7044C38.2424 19.6416 46.2483 44.4593 56.0884 30.7044C54.7254 42.4275 36.302 45.2627 29.5251 35.1723Z" fill="url(#paint5_linear_18_254)"/>
<defs>
<linearGradient id="paint0_linear_18_254" x1="70.2392" y1="18.0394" x2="75.2751" y2="-1.85968" gradientUnits="userSpaceOnUse">
<stop stop-color="#59431F"/>
<stop offset="0.25" stop-color="#8E6B2C"/>
<stop offset="0.6" stop-color="#C9A24A"/>
<stop offset="1" stop-color="#EAD38F"/>
</linearGradient>
<linearGradient id="paint1_linear_18_254" x1="71.4609" y1="35.698" x2="74.7742" y2="12.4699" gradientUnits="userSpaceOnUse">
<stop stop-color="#59431F"/>
<stop offset="0.25" stop-color="#8E6B2C"/>
<stop offset="0.6" stop-color="#C9A24A"/>
<stop offset="1" stop-color="#EAD38F"/>
</linearGradient>
<linearGradient id="paint2_linear_18_254" x1="2.01659" y1="25.8277" x2="13.891" y2="-12.5878" gradientUnits="userSpaceOnUse">
<stop stop-color="#59431F"/>
<stop offset="0.25" stop-color="#8E6B2C"/>
<stop offset="0.6" stop-color="#C9A24A"/>
<stop offset="1" stop-color="#EAD38F"/>
</linearGradient>
<linearGradient id="paint3_linear_18_254" x1="2.01659" y1="25.8277" x2="13.891" y2="-12.5878" gradientUnits="userSpaceOnUse">
<stop stop-color="#59431F"/>
<stop offset="0.25" stop-color="#8E6B2C"/>
<stop offset="0.6" stop-color="#C9A24A"/>
<stop offset="1" stop-color="#EAD38F"/>
</linearGradient>
<linearGradient id="paint4_linear_18_254" x1="4.72918" y1="41.1597" x2="8.48771" y2="20.0148" gradientUnits="userSpaceOnUse">
<stop stop-color="#59431F"/>
<stop offset="0.25" stop-color="#8E6B2C"/>
<stop offset="0.6" stop-color="#C9A24A"/>
<stop offset="1" stop-color="#EAD38F"/>
</linearGradient>
<linearGradient id="paint5_linear_18_254" x1="4.72918" y1="41.1597" x2="8.48771" y2="20.0148" gradientUnits="userSpaceOnUse">
<stop stop-color="#59431F"/>
<stop offset="0.25" stop-color="#8E6B2C"/>
<stop offset="0.6" stop-color="#C9A24A"/>
<stop offset="1" stop-color="#EAD38F"/>
</linearGradient>
</defs>
</svg>
